<svg xmlns="http://www.w3.org/2000/svg" width="1670" height="760" fill="none" viewBox="0 0 1670 760">
  <path fill="#B34D4D" d="M541.048 199.623c-.56.35-2.099.701-3.358.701-1.469 0-3.357.771-4.896 1.893-5.667 4.277-6.016 5.959-2.379 10.867 4.057 5.399 5.876 9.395 6.226 13.812.35 3.506-.42 6.451-7.065 28.115-4.127 13.322-8.465 27.344-9.584 31.2-3.148 10.377-4.827 15.776-5.876 18.931-.49 1.542-1.749 5.468-2.728 8.764-.979 3.295-6.506 21.384-12.382 40.314a15187.781 15187.781 0 0 0-11.822 38.562c-6.645 22.085-8.184 26.152-10.563 27.414-4.407 2.244-7.834.28-9.863-5.679-2.169-6.591-18.398-58.614-24.484-78.877-.769-2.524-2.028-6.52-2.728-8.904-.769-2.454-1.958-6.38-2.728-8.764-.699-2.454-2.168-7.081-3.148-10.376a874.761 874.761 0 0 1-3.148-10.167c-.699-2.313-1.888-6.31-2.728-8.974-.839-2.594-2.098-6.661-2.798-9.115-.769-2.384-2.588-8.553-4.197-13.672-10.423-33.864-9.933-31.69-7.555-38.001 2.588-7.011 4.967-11.218 8.534-15.354 4.057-4.768 4.057-6.801 0-8.834-2.588-1.262-4.057-1.403-18.887-1.262-8.814.14-20.636.49-26.232.841-5.597.351-10.773.631-11.543.631-.769 0-4.826.28-8.954.701-7.974.771-10.982 2.033-17.208 7.081-2.728 2.244-2.588 4.558.35 5.259.979.28 3.567 1.683 5.736 3.155 2.168 1.472 6.715 4.417 10.003 6.52 3.987 2.595 6.576 4.768 7.625 6.591.909 1.542 2.588 3.506 3.638 4.487 2.098 1.823 3.987 6.871 11.752 31.551 1.958 6.38 4.057 12.83 4.547 14.373 3.637 10.517 8.744 27.764 8.744 29.377 0 .981.489 2.594 1.119 3.505 1.399 2.174 5.876 16.126 5.876 18.37 0 .981.56 2.875 1.329 4.347.7 1.402 2.099 6.24 3.218 10.657 1.049 4.417 2.448 8.834 3.078 9.816 1.469 2.103 2.588 5.118 6.366 17.528 1.608 5.188 3.287 10.727 3.847 12.269.49 1.543 2.588 7.993 4.547 14.373a6550.782 6550.782 0 0 0 10.213 32.182c.56 1.753.979 3.996.979 5.048s.91 5.96 2.029 10.938c1.119 4.908 2.518 11.358 3.148 14.232 2.099 10.027 3.777 16.477 6.366 23.839 1.399 4.066 3.497 11.568 4.617 16.686 1.189 5.189 3.217 12.2 4.546 15.706 1.4 3.505 3.708 11.007 5.177 16.686 4.057 15.495 5.876 21.034 6.785 21.034 1.469 0 3.848-2.804 4.407-5.188 4.897-20.263 15.67-50.762 25.533-72.286 1.399-3.085 3.498-8.133 4.617-11.218 1.119-3.085 3.778-9.255 5.806-13.672 2.099-4.417 5.736-14.373 8.115-22.085a4161.287 4161.287 0 0 1 8.884-28.396c2.518-7.923 6.575-20.823 9.094-28.746 2.448-7.923 6.295-18.51 8.394-23.488 4.407-10.306 9.584-26.853 8.674-27.974-.35-.421 1.189-6.381 3.568-13.742 2.308-7.152 6.156-19.281 8.604-26.994a7491.862 7491.862 0 0 1 10.563-32.953c3.288-10.446 6.506-20.823 7.135-23.067.91-3.505 1.749-4.837 5.317-8.413 2.378-2.384 6.785-5.889 9.863-7.782 7.905-4.838 10.143-6.731 10.143-8.554 0-1.122-.559-1.683-1.889-2.033-1.119-.211-2.448-.561-3.078-.702-3.077-.841-20.076-1.893-32.807-2.033-7.905-.14-16.23-.561-18.538-.981-4.897-.912-4.617-.912-5.946-.07Zm542.832 38.421c-2.52 1.052-6.71 3.365-9.44 5.118-20.57 13.532-27.28 17.458-29.8 17.458-.91-.07-2.59-.491-3.78-.981l-2.1-.842 1.68-1.402c1.75-1.472 5.67-6.871 5.67-7.782 0-.772-7.77-2.034-18.75-3.085-6.29-.561-11.05-.561-18.19 0-5.24.42-12.099.981-15.177 1.192-4.407.35-6.155.771-8.184 2.173-1.469.982-2.658 2.033-2.658 2.384 0 .28 1.749 2.033 3.917 3.856 2.099 1.823 4.337 4.277 4.897 5.329 1.329 2.524 2.658 28.535 2.098 40.525-.21 4.417-.559 34.845-.839 67.658-.49 67.658.28 60.086-6.925 71.164-2.099 3.225-3.848 6.24-3.848 6.661 0 .49 6.716.771 20.289.911l20.28.21 3.43-2.173c3.85-2.524 4.55-3.926 3.15-6.38-.49-.912-.91-2.174-.98-2.805 0-.771 5.25-4.417 15.25-10.446 17.21-10.587 20.08-12.06 27.84-14.093 6.23-1.613 13.08-1.402 17.63.491 10 4.206 18.82 5.539 22.17 3.365 1.68-1.052 1.68-1.122.56-3.996-3.35-8.975-11.19-23.558-16.37-30.499-3.14-4.137-5.87-7.572-6.22-7.713-1.26-.42-18.82 8.905-28.33 15.075-12.94 8.343-31.69 19.14-33.37 19.14-1.75 0-4.83-1.612-6.5-3.435-1.19-1.402-1.33-2.594-1.33-12.55 0-6.03.21-14.654.56-19.141l.56-8.063 4.47-2.945c9.31-6.099 33.65-20.753 37.71-22.646 6.22-3.015 13.5-4.417 20.07-3.926 3.01.28 6.16.841 7.07 1.262 3.29 1.823 14.9 4.838 18.4 4.838 6.57 0 6.29-2.174-2.03-18.931-4.2-8.413-14.83-24.469-16.65-25.1-1.4-.561-14.13 6.31-26.16 14.022-17.35 11.148-34.21 20.894-35.96 20.894-1.89 0-4.97-1.542-6.51-3.295-1.46-1.613-2.3-13.462-1.46-20.894l.56-4.908 4.54-3.014c10.5-6.942 37.43-22.857 40.79-24.049 6.22-2.314 13.01-3.365 17.27-2.734 2.1.35 7.63 1.893 12.25 3.435 9.86 3.365 14.69 3.716 16.71 1.402 1.19-1.402 1.19-1.612.07-4.767-3.7-9.886-10.56-22.366-16.92-30.85-2.45-3.225-4.41-6.17-4.41-6.52 0-.982-2.31-.561-7 1.402Zm115.08 3.295c-10.29 2.594-11.97 4.277-8.54 8.554 4.83 6.1 4.83 5.96 4.76 30.359-.07 12.129-.21 23.628-.35 25.591-.35 4.347-.35 16.616-.07 57.141.07 17.669-.14 36.248-.56 41.717-.42 5.399-.77 12.41-.84 15.565-.07 5.819-.42 6.871-4.69 16.336-2.24 4.768-2.03 6.941.56 6.38 2.24-.49 8.75-.42 16.79.211 6.58.491 8.33.421 11.54-.631 4.27-1.332 6.44-3.295 5.67-5.118-.28-.631-1.4-2.524-2.52-4.207-1.12-1.683-2.31-4.487-2.66-6.31-1.33-7.222-1.75-19.632-1.05-29.798.63-8.133.56-11.919-.21-17.879-1.05-8.273-1.4-60.857-.42-66.957.42-2.734.91-3.646 2.73-4.768 1.33-.771 3.5-1.332 5.32-1.332 2.66 0 3.36.351 5.24 2.594 1.19 1.403 4.13 4.628 6.51 7.152 4.41 4.697 5.95 6.661 10.35 13.181 3.57 5.329 3.64 5.258 10.22-3.365 4.26-5.609 10.07-11.218 13.92-13.252 1.19-.631 2.24-.701 4.19-.07 4.34 1.262 4.83 2.384 5.18 11.008.49 11.568.42 40.104-.14 72.146-.56 32.041-.35 30.428-6.01 38.842-3.22 4.697-3.64 7.852-1.12 8.553.98.281 9.72.491 19.44.561 17.42.07 17.7.071 20.29-1.612 4.76-3.015 4.76-2.524-.91-14.443-5.81-12.13-5.67-11.429-6.37-31.2-.21-6.591-.56-14.584-.77-17.879-.42-9.044-.42-10.236.35-18.58.35-4.277.56-20.823.42-36.809-.35-37.65-.42-36.598 1.12-42.768 2.31-9.606 3.57-11.709 13.78-22.226 10.85-11.218 12.25-12.76 11.83-13.391-.35-.631-6.51-1.753-14.06-2.595-1.89-.21-5.04-.911-6.86-1.472-3.57-1.192-3.64-1.192-22.17.701-14.21 1.402-13.79 1.332-16.72 3.786l-2.45 2.034 5.03 5.328c4.97 5.259 5.04 5.399 4.97 9.045-.14 8.764-.91 11.568-3.85 14.653-2.93 3.085-12.1 11.148-17.83 15.635-3.29 2.594-3.57 2.664-7.21 2.244-3.78-.491-3.78-.491-12.73-10.026-8.53-8.975-12.59-14.584-14.27-19.562-.63-1.893-.49-2.594.84-4.697a208.73 208.73 0 0 0 4.34-7.082c1.53-2.454 3.49-4.837 4.4-5.258 3.29-1.472 1.4-4.067-4.33-6.03-2.45-.841-6.51-1.262-13.3-1.472-8.67-.21-10.56-.07-16.78 1.472Zm-52.47-.28c-3.08.28-9.02.701-13.22.981-6.09.421-7.84.772-8.88 1.823-.7.702-1.61 1.333-1.96 1.333-.35 0-.98.42-1.4.981-.7.771-.07 1.613 3.01 4.347 6.85 5.89 6.36 1.192 6.36 59.175 0 27.975-.14 65.345-.35 83.083l-.35 32.252-5.03 7.993c-2.8 4.417-5.11 8.413-5.11 8.974 0 .631 1.33.841 5.46.701 2.93-.07 12.03 0 20.21.14l14.76.211 3.57-2.244c2.17-1.472 3.57-2.875 3.57-3.646 0-1.542-1.61-4.908-6.58-13.532l-3.57-6.24-.14-65.975c-.14-42.769.07-67.378.56-70.113.98-5.679 3.29-12.76 5.25-15.915.91-1.402 5.04-5.539 9.23-9.255 7.21-6.31 11.34-10.727 11.34-12.199 0-.632-3.08-1.192-10.5-1.823-1.75-.211-6.57-.631-10.84-1.052-4.2-.421-8.18-.701-8.74-.701-.56.07-3.57.35-6.65.701Zm-412.582 1.332c-4.547.28-9.653.771-11.332.982-2.868.49-6.646 2.664-6.646 3.856 0 .35 1.749 1.963 3.918 3.646 2.098 1.682 4.547 4.206 5.386 5.539l1.539 2.453-.21 79.929c-.14 76.142-.28 80.278-1.539 87.149-1.469 7.713-2.028 27.695-.769 28.536.35.21 3.008-1.192 5.806-3.015 2.798-1.893 9.374-6.03 14.55-9.255 5.177-3.155 11.332-7.011 13.641-8.624 16.299-11.007 17.628-11.778 25.253-13.882 4.127-1.122 6.715-1.402 10.423-1.122 5.107.351 5.736.491 18.188 5.609 9.373 3.857 13.92 4.628 16.369 2.665l1.749-1.332-1.889-4.207c-1.049-2.314-1.889-4.417-1.889-4.698 0-.35-.42-1.122-.979-1.682-.49-.631-2.589-4.277-4.617-8.133-4.757-8.975-8.464-14.724-15.46-24.049-3.148-4.137-5.806-7.572-5.876-7.712-.21-.211-19.307 11.358-28.96 17.598-4.058 2.594-7.905 4.697-8.605 4.697-1.958 0-5.666-1.752-6.995-3.225-1.119-1.262-1.259-5.679-1.679-52.865-.419-53.916-.28-59.034 2.519-67.378 2.588-7.922 3.847-9.535 14.969-19.14 4.547-3.926 9.234-9.325 8.605-9.956-.56-.561-6.366-1.753-9.934-2.033-8.254-.631-28.331-.842-35.536-.351Zm123.257 1.753c-.209.14-5.246.631-11.192.981-9.164.491-11.193.842-13.361 2.174-1.469.841-2.658 1.893-2.658 2.384 0 .49 1.749 2.384 3.847 4.206 6.716 5.75 6.226 2.384 6.296 47.046 0 21.594-.14 58.964-.35 83.083l-.35 43.89-4.407 6.941c-3.217 5.189-4.337 7.573-4.197 9.045l.21 2.103h19.657l19.727.07 3.007-2.173c1.679-1.262 3.148-2.734 3.288-3.295.28-1.403-2.518-7.292-6.715-14.303l-3.288-5.469v-18.299c0-16.897.14-18.51 1.259-19.772.77-.771 5.317-3.716 10.143-6.52 4.897-2.735 11.543-6.801 14.83-9.045 3.288-2.173 9.934-6.24 14.83-9.044 9.794-5.68 11.403-5.96 15.53-2.665 1.749 1.403 2.029 2.244 2.588 7.502.42 3.436.49 19.281.21 37.51l-.42 31.551-5.176 7.993c-2.868 4.417-5.107 8.413-4.967 8.764.14.491 6.995.771 20.846.771h20.636l2.309-1.893c1.259-1.122 2.518-1.963 2.868-1.963 1.119 0 1.119-2.454.07-4.908-.63-1.332-2.938-5.679-5.107-9.535l-3.987-7.082v-68.009c-.07-72.846-.14-69.972 3.498-79.787 1.608-4.347 2.238-5.049 16.578-18.72 3.568-3.366 6.436-6.381 6.436-6.731 0-.912-6.715-2.034-18.188-3.015-7.205-.631-11.962-.631-20.636 0-6.156.421-12.941.911-15.11 1.052-3.987.28-9.024 2.734-9.024 4.417 0 .42 1.749 2.313 3.848 4.136 6.156 5.329 6.156 5.118 6.226 35.407l.07 26.012-1.959 1.682c-2.798 2.384-15.879 10.097-28.471 16.757-5.946 3.155-12.941 7.012-15.46 8.624-2.518 1.613-5.316 2.945-6.155 2.945-1.959 0-4.967-1.543-6.716-3.506-1.329-1.472-1.399-2.664-1.609-29.868-.21-26.642-.14-28.676 1.259-34.425 2.659-11.288 4.407-13.812 16.09-23.978 4.407-3.786 9.093-9.045 9.093-10.167 0-1.472-34.416-4.206-35.746-2.874Zm-232.523 4.697c-13.011.912-14.69 1.192-16.509 2.665-.84.771-1.819 1.402-2.169 1.402-1.329 0-.349 2.454 2.239 5.609 1.539 1.823 2.798 3.576 2.798 3.786 0 .28.769 1.683 1.749 3.225 2.028 3.225 2.308 8.414.769 13.392-.559 1.682-2.658 8.273-4.617 14.653-3.707 11.919-11.752 37.3-13.99 44.171-.7 2.103-2.239 6.029-3.428 8.624-1.959 4.347-3.428 9.254-5.666 19.07-.42 1.893-2.658 9.465-4.967 16.827-2.308 7.292-6.226 19.772-8.744 27.695-2.448 7.922-5.106 15.494-5.806 16.827-.839 1.542-3.428 3.926-6.995 6.38-7.625 5.188-8.395 5.959-7.066 7.221 1.539 1.543 13.851 2.665 28.751 2.594h13.011l3.218-2.103c3.988-2.734 4.407-3.926 2.379-6.661-2.309-3.014-3.428-5.258-4.058-8.062-.559-2.525-.489-2.945 5.737-22.577l3.427-11.007 4.897-2.875c4.547-2.734 28.191-14.794 28.96-14.794.21 0 2.449-.911 4.897-2.103 6.646-3.015 7.625-3.155 11.193-1.402 3.637 1.753 2.868-.211 11.682 28.325 3.427 11.078 6.226 21.104 6.226 22.226 0 3.225-2.589 9.184-5.597 12.76-3.008 3.716-3.008 5.469.14 6.521 3.848 1.332 44.071-.351 46.799-1.963 5.806-3.366 6.226-3.716 6.226-5.82 0-1.893-.56-2.454-5.946-5.469-7.975-4.627-11.683-8.974-14.481-17.177s-10.213-31.621-11.822-37.3c-.769-2.524-2.098-7.081-3.148-10.166-4.267-13.392-5.176-16.477-5.176-17.668 0-.702-.63-2.454-1.399-3.857-.77-1.402-3.078-8.063-5.177-14.723-2.098-6.661-5.736-18.3-8.114-25.802l-4.337-13.672-.21-10.446c-.21-9.255-.07-10.938 1.189-14.373 1.539-4.067 4.547-9.395 5.526-9.746.35-.14.63-.701.63-1.192 0-1.052-1.609-1.402-13.641-2.804-9.723-1.122-15.11-1.192-29.38-.211Zm13.92 64.574c.84.841 2.449 4.347 3.498 7.852 1.119 3.506 2.588 8.204 3.288 10.447 1.679 5.188 1.679 6.17-.07 9.535-1.119 2.244-2.378 3.296-6.296 5.259-2.728 1.402-6.505 3.085-8.464 3.856-3.358 1.332-3.638 1.332-6.016.21-1.329-.631-3.008-2.103-3.708-3.225-1.189-1.963-1.189-2.243.35-8.133.91-3.295 3.078-10.517 4.897-16.056 3.498-10.797 3.777-11.218 8.604-11.288 1.469-.07 2.868.491 3.917 1.543Z"/>
  <path fill="#B34D4D" d="M540.209 450.064c-3.568 3.365-5.457 11.568-5.457 24.048 0 9.045 1.119 15.635 4.337 26.433l2.309 7.572 2.798-.07c1.539 0 3.917-.421 5.246-.912 1.329-.49 5.107-1.893 8.325-3.085 3.288-1.262 9.723-2.874 14.48-3.645 10.003-1.613 41.552-3.156 53.094-2.595 6.786.351 8.605.701 15.39 3.296a4312.666 4312.666 0 0 1 14.76 5.609c16.229 6.099 23.294 6.801 33.298 3.085 10.912-3.927 21.195-6.801 36.935-10.237l10.843-2.314h42.741l5.036 3.085c6.996 4.207 12.452 6.311 16.439 6.381 3.638 0 17.838-3.366 24.624-5.82 3.777-1.402 5.526-1.542 17.488-1.542 7.345 0 15.18.07 17.488.21 2.309.07 5.527-.07 7.135-.421 1.679-.35 4.547-.35 6.646-.07 2.029.351 6.366.982 9.584 1.333 3.217.42 6.855 1.191 8.044 1.682 1.189.491 4.337 3.506 7.065 6.801 2.729 3.225 7.835 8.834 11.333 12.55l6.505 6.661 2.589-1.402c2.448-1.332 10.632-9.045 16.369-15.425 2.028-2.314 4.197-3.506 12.241-6.801 11.683-4.698 18.888-6.38 25.813-5.819 2.658.21 20.356.14 39.173-.211 32.11-.631 34.49-.701 37.43-2.033 5.38-2.384 8.32-2.594 13.01-.911 8.32 3.085 9.44 3.225 13.92 1.121 5.66-2.594 8.53-2.383 15.32.982 3.14 1.542 7.06 3.015 8.81 3.225 2.8.351 3.64.14 6.44-1.753l3.21-2.173 4.83.981c2.59.561 5.25 1.192 5.81 1.403 1.4.561 13.15 3.085 19.65 4.206 5.67 1.052 10.57 3.226 14.83 6.591l2.66 2.173 6.58-3.505c5.17-2.735 9.02-4.137 18.68-6.661l12.1-3.155 31.83.07c32.52.07 33.85.14 51.41 3.296 5.67.981 13.99 1.893 19.66 2.103 9.58.421 9.93.35 10.7-1.122.49-.771 1.47-1.472 2.17-1.472 1.33 0 1.4-.491 1.4-6.731v-6.801l5.39-7.081c5.1-6.801 7.97-11.919 8.95-15.986.42-1.683.21-1.963-1.4-2.384-3.64-.911-14.83.281-36.03 3.786-37.42 6.17-40.36 6.381-93.38 6.451-48.55 0-75.41-.772-83.39-2.384-2.59-.561-6.78-1.192-9.3-1.472-4.62-.491-23.02-4.978-28.61-6.942-1.68-.631-4.41-1.121-6.09-1.121-3.29 0-23.01 5.398-36.09 9.956-7.21 2.453-8.47 2.664-10.57 2.033-1.67-.561-9.3-.561-27.418-.07-32.668.911-52.254.911-57.431-.07-2.238-.351-7.555-1.964-11.752-3.576-7.415-2.735-7.905-2.805-13.361-2.384-3.148.28-9.164 1.262-13.361 2.244-9.584 2.243-22.175 4.487-24.903 4.487-1.189 0-4.757-.842-7.975-1.823-4.057-1.262-6.436-1.683-7.765-1.332-1.119.28-5.246.491-9.303.42-6.156-.14-7.765-.42-9.794-1.682-1.959-1.192-3.428-1.473-7.695-1.403-5.386.071-16.439 1.473-27.141 3.436-6.926 1.262-19.587 2.594-25.393 2.594-4.128.07-5.876-.491-13.501-4.207-5.597-2.734-6.296-2.734-12.312-.911-5.876 1.823-20.426 5.399-24.623 5.96-2.169.35-5.037.14-8.045-.561-3.078-.702-11.892-1.403-25.393-1.893-25.533-.982-56.522-3.646-69.953-5.96-5.596-.982-15.39-2.594-21.895-3.506-6.436-.981-12.522-2.103-13.431-2.454-.979-.35-3.778-.981-6.226-1.402-2.448-.35-7.275-2.033-10.983-3.786-4.547-2.103-8.604-3.365-13.221-4.207-3.637-.631-8.674-1.612-11.192-2.173-5.946-1.402-5.666-1.402-8.534 1.192Z"/>
</svg>
