<svg xmlns="http://www.w3.org/2000/svg" width="830" height="350" fill="none" viewBox="0 0 830 350">
  <path fill="#999" d="M267.359 100.293c-.261.165-.981.33-1.569.33-.687 0-1.569.364-2.288.892-2.649 2.014-2.812 2.806-1.112 5.117 1.896 2.543 2.746 4.425 2.91 6.505.163 1.651-.197 3.037-3.302 13.239-1.929 6.274-3.956 12.877-4.479 14.693-1.471 4.887-2.256 7.429-2.746 8.915-.229.726-.817 2.575-1.275 4.127-.458 1.551-3.04 10.07-5.787 18.984a7125.81 7125.81 0 0 0-5.524 18.16c-3.106 10.4-3.825 12.315-4.937 12.909-2.059 1.057-3.661.132-4.609-2.674-1.014-3.104-8.598-27.602-11.442-37.144-.36-1.189-.948-3.071-1.275-4.193-.36-1.156-.916-3.005-1.275-4.127-.327-1.156-1.014-3.335-1.471-4.887a402.257 402.257 0 0 1-1.472-4.787c-.326-1.09-.882-2.972-1.275-4.226-.392-1.222-.98-3.137-1.307-4.293-.36-1.122-1.21-4.028-1.962-6.438-4.871-15.947-4.642-14.924-3.53-17.895 1.209-3.302 2.321-5.283 3.988-7.231 1.896-2.245 1.896-3.202 0-4.16-1.21-.594-1.896-.66-8.827-.594-4.119.066-9.644.231-12.259.396s-5.035.297-5.394.297c-.36 0-2.256.132-4.185.33-3.727.363-5.132.958-8.042 3.335-1.275 1.057-1.209 2.146.164 2.476.457.132 1.667.793 2.68 1.486 1.014.693 3.139 2.08 4.675 3.071 1.864 1.221 3.073 2.245 3.564 3.103.425.727 1.209 1.651 1.7 2.113.98.859 1.863 3.236 5.492 14.858.915 3.004 1.896 6.042 2.125 6.768 1.7 4.953 4.086 13.075 4.086 13.834 0 .463.229 1.222.523 1.651.654 1.024 2.746 7.594 2.746 8.651 0 .462.262 1.353.621 2.047.327.66.981 2.938 1.504 5.018.491 2.08 1.144 4.16 1.439 4.623.686.99 1.209 2.41 2.975 8.254.752 2.443 1.536 5.051 1.798 5.778.228.726 1.209 3.764 2.125 6.768a2984.532 2984.532 0 0 0 4.773 15.155c.261.826.457 1.882.457 2.377 0 .496.425 2.807.948 5.151.523 2.311 1.177 5.349 1.471 6.702.981 4.722 1.766 7.759 2.975 11.226.654 1.915 1.635 5.448 2.158 7.858.556 2.443 1.504 5.745 2.125 7.396.654 1.651 1.733 5.184 2.419 7.858 1.896 7.297 2.746 9.905 3.171 9.905.687 0 1.798-1.321 2.06-2.443 2.288-9.542 7.323-23.904 11.932-34.041.654-1.452 1.635-3.83 2.158-5.282.523-1.453 1.765-4.359 2.713-6.439.981-2.08 2.681-6.768 3.792-10.4 1.112-3.632 2.975-9.641 4.152-13.372s3.073-9.806 4.25-13.537c1.144-3.731 2.942-8.716 3.923-11.06 2.06-4.854 4.479-12.646 4.054-13.174-.163-.198.556-3.005 1.667-6.471 1.079-3.368 2.877-9.08 4.021-12.712a3737.564 3737.564 0 0 1 4.937-15.518c1.536-4.919 3.04-9.806 3.334-10.862.425-1.651.818-2.279 2.485-3.963 1.111-1.122 3.171-2.773 4.609-3.664 3.695-2.279 4.741-3.17 4.741-4.028 0-.529-.262-.793-.883-.958-.523-.099-1.144-.264-1.438-.33-1.439-.396-9.383-.892-15.333-.958-3.694-.066-7.584-.264-8.663-.462-2.288-.43-2.158-.43-2.779-.033Zm253.687 18.093c-1.177.496-3.139 1.585-4.414 2.411-9.611 6.372-12.749 8.221-13.926 8.221-.425-.033-1.21-.231-1.765-.462l-.981-.397.784-.66c.818-.693 2.648-3.236 2.648-3.665 0-.363-3.628-.957-8.761-1.453-2.942-.264-5.165-.264-8.5 0-2.452.199-5.655.463-7.094.562-2.059.165-2.877.363-3.825 1.023-.686.462-1.242.958-1.242 1.123 0 .132.817.957 1.831 1.816.98.858 2.027 2.014 2.288 2.509.621 1.189 1.242 13.438.981 19.084-.098 2.08-.262 16.409-.392 31.861-.229 31.861.13 28.296-3.237 33.512-.981 1.519-1.798 2.939-1.798 3.137 0 .231 3.138.363 9.481.429l9.48.099 1.602-1.023c1.798-1.189 2.125-1.849 1.471-3.005-.229-.429-.425-1.023-.458-1.321 0-.363 2.452-2.08 7.127-4.919 8.042-4.986 9.383-5.679 13.011-6.636 2.91-.76 6.114-.661 8.239.231 4.675 1.981 8.794 2.608 10.363 1.584.785-.495.785-.528.262-1.882-1.57-4.226-5.231-11.093-7.65-14.362-1.471-1.948-2.746-3.566-2.91-3.632-.588-.198-8.794 4.193-13.24 7.099-6.048 3.929-14.809 9.014-15.594 9.014-.817 0-2.256-.76-3.04-1.618-.556-.661-.621-1.222-.621-5.91 0-2.84.098-6.901.261-9.014l.262-3.797 2.092-1.387c4.348-2.872 15.725-9.773 17.621-10.664 2.909-1.42 6.309-2.08 9.382-1.849 1.406.132 2.877.396 3.302.594 1.537.859 6.963 2.278 8.598 2.278 3.073 0 2.942-1.023-.948-8.914-1.962-3.962-6.931-11.523-7.781-11.82-.653-.264-6.603 2.971-12.226 6.603-8.108 5.25-15.986 9.839-16.804 9.839-.882 0-2.321-.726-3.04-1.552-.687-.759-1.079-6.339-.687-9.839l.262-2.311 2.125-1.419c4.904-3.269 17.49-10.764 19.059-11.325 2.91-1.09 6.081-1.585 8.075-1.288.981.165 3.563.892 5.721 1.618 4.609 1.585 6.865 1.75 7.813.66.556-.66.556-.759.033-2.245-1.733-4.655-4.937-10.532-7.911-14.527-1.145-1.519-2.06-2.906-2.06-3.071 0-.462-1.079-.264-3.269.66Zm53.777 1.552c-4.805 1.222-5.59 2.014-3.988 4.028 2.256 2.873 2.256 2.807 2.223 14.297-.033 5.711-.098 11.126-.163 12.051-.164 2.047-.164 7.825-.033 26.909.033 8.32-.065 17.069-.262 19.645-.196 2.542-.359 5.844-.392 7.329-.033 2.741-.196 3.236-2.19 7.693-1.046 2.245-.948 3.269.261 3.005 1.047-.231 4.087-.198 7.846.099 3.073.231 3.891.198 5.394-.297 1.995-.628 3.008-1.552 2.648-2.411-.13-.297-.653-1.188-1.176-1.981-.524-.792-1.079-2.113-1.243-2.971-.621-3.401-.817-9.245-.49-14.032.294-3.83.261-5.613-.098-8.42-.491-3.896-.654-28.658-.196-31.531.196-1.287.425-1.717 1.275-2.245.621-.363 1.634-.627 2.484-.627 1.242 0 1.569.165 2.452 1.221.556.661 1.929 2.18 3.04 3.368 2.06 2.212 2.779 3.137 4.839 6.207 1.667 2.51 1.7 2.477 4.773-1.584 1.994-2.642 4.707-5.283 6.505-6.241.556-.297 1.046-.33 1.962-.033 2.027.595 2.256 1.123 2.419 5.184.229 5.448.196 18.886-.065 33.974-.262 15.089-.164 14.33-2.812 18.292-1.504 2.212-1.7 3.698-.523 4.028.458.132 4.544.231 9.088.264 8.141.033 8.271.033 9.481-.759 2.223-1.42 2.223-1.189-.425-6.802-2.713-5.712-2.648-5.382-2.975-14.692-.098-3.104-.262-6.868-.36-8.42-.196-4.259-.196-4.82.164-8.749.163-2.014.261-9.806.196-17.334-.163-17.73-.196-17.235.523-20.14 1.079-4.524 1.667-5.514 6.44-10.467 5.067-5.282 5.721-6.009 5.525-6.306-.163-.297-3.04-.825-6.571-1.222-.882-.099-2.354-.429-3.204-.693-1.667-.561-1.7-.561-10.363.33-6.636.661-6.44.627-7.813 1.783l-1.144.958 2.353 2.509c2.322 2.476 2.354 2.542 2.322 4.259-.066 4.127-.425 5.448-1.799 6.901-1.373 1.452-5.655 5.249-8.336 7.362-1.536 1.222-1.667 1.255-3.367 1.057-1.765-.231-1.765-.231-5.95-4.722-3.988-4.226-5.884-6.867-6.669-9.211-.294-.892-.229-1.222.392-2.212a97.907 97.907 0 0 0 2.027-3.335c.719-1.156 1.635-2.278 2.06-2.476 1.536-.694.654-1.915-2.027-2.84-1.144-.396-3.04-.594-6.212-.693-4.053-.099-4.936-.033-7.846.693Zm-24.518-.132c-1.439.132-4.217.33-6.179.462-2.844.198-3.661.364-4.152.859-.327.33-.752.627-.915.627-.164 0-.458.198-.654.462-.327.364-.033.76 1.406 2.047 3.204 2.774 2.975.562 2.975 27.867 0 13.173-.066 30.771-.164 39.125l-.163 15.187-2.354 3.764c-1.308 2.08-2.386 3.962-2.386 4.227 0 .297.621.396 2.549.33 1.374-.033 5.623 0 9.448.066l6.898.099 1.667-1.057c1.014-.693 1.668-1.353 1.668-1.717 0-.726-.752-2.311-3.073-6.372l-1.668-2.938-.065-31.069c-.065-20.141.033-31.73.262-33.017.457-2.675 1.536-6.009 2.452-7.495.425-.66 2.353-2.608 4.315-4.358 3.367-2.972 5.296-5.052 5.296-5.745 0-.297-1.439-.561-4.904-.859-.817-.099-3.073-.297-5.067-.495-1.962-.198-3.825-.33-4.087-.33-.261.033-1.667.165-3.105.33Zm-192.815.627c-2.125.133-4.512.364-5.296.463-1.341.231-3.106 1.254-3.106 1.816 0 .165.817.924 1.831 1.716.981.793 2.125 1.982 2.517 2.609l.719 1.155-.098 37.64c-.065 35.856-.131 37.804-.719 41.04-.687 3.632-.948 13.041-.36 13.438.164.099 1.406-.562 2.714-1.42 1.307-.892 4.38-2.84 6.8-4.358 2.419-1.486 5.296-3.302 6.375-4.061 7.617-5.184 8.238-5.547 11.801-6.538 1.929-.528 3.139-.66 4.871-.528 2.387.165 2.681.231 8.5 2.641 4.381 1.816 6.506 2.179 7.65 1.255l.817-.627-.883-1.981c-.49-1.09-.882-2.08-.882-2.213 0-.165-.196-.528-.458-.792-.229-.297-1.209-2.014-2.158-3.83-2.223-4.226-3.955-6.933-7.224-11.325-1.472-1.948-2.714-3.566-2.746-3.632-.099-.099-9.023 5.349-13.535 8.288-1.896 1.221-3.694 2.212-4.021 2.212-.915 0-2.648-.826-3.269-1.519-.523-.594-.588-2.674-.785-24.895-.196-25.39-.13-27.8 1.177-31.729 1.21-3.731 1.798-4.49 6.996-9.014 2.125-1.849 4.316-4.391 4.021-4.688-.261-.264-2.975-.825-4.642-.957-3.857-.298-13.24-.397-16.607-.166Zm57.602.826c-.098.066-2.451.297-5.23.462-4.283.231-5.231.396-6.244 1.024-.687.396-1.243.891-1.243 1.122 0 .231.818 1.123 1.798 1.981 3.139 2.708 2.91 1.123 2.943 22.155 0 10.169-.066 27.767-.164 39.125l-.163 20.668-2.06 3.269c-1.504 2.443-2.027 3.566-1.961 4.259l.098.991h9.186l9.219.033 1.406-1.024c.784-.594 1.471-1.288 1.536-1.552.131-.66-1.177-3.434-3.138-6.735l-1.537-2.576v-8.617c0-7.957.066-8.716.589-9.311.36-.363 2.484-1.75 4.74-3.07 2.289-1.288 5.394-3.203 6.931-4.259 1.536-1.024 4.642-2.939 6.93-4.26 4.577-2.674 5.329-2.806 7.258-1.254.817.66.948 1.056 1.21 3.533.196 1.617.228 9.079.098 17.664l-.197 14.857-2.419 3.764c-1.34 2.08-2.386 3.962-2.321 4.127.066.231 3.269.363 9.742.363h9.644l1.079-.891c.589-.528 1.177-.925 1.34-.925.524 0 .524-1.155.033-2.311-.294-.627-1.373-2.674-2.386-4.49l-1.864-3.335V174.02c-.032-34.305-.065-32.951 1.635-37.573.752-2.047 1.046-2.378 7.748-8.816 1.667-1.585 3.007-3.004 3.007-3.169 0-.43-3.138-.958-8.499-1.42-3.368-.297-5.591-.297-9.644 0-2.877.198-6.048.429-7.062.495-1.863.132-4.217 1.288-4.217 2.08 0 .198.817 1.09 1.798 1.948 2.877 2.509 2.877 2.41 2.91 16.674l.032 12.249-.915.792c-1.308 1.123-7.421 4.755-13.306 7.891-2.778 1.486-6.048 3.302-7.224 4.061-1.177.76-2.485 1.387-2.877 1.387-.916 0-2.321-.726-3.139-1.651-.621-.693-.654-1.254-.752-14.065-.098-12.546-.065-13.504.589-16.211 1.242-5.316 2.059-6.505 7.519-11.292 2.059-1.783 4.25-4.259 4.25-4.787 0-.694-16.084-1.981-16.706-1.354Zm-108.666 2.212c-6.081.429-6.866.561-7.716 1.255-.392.363-.85.66-1.013.66-.621 0-.164 1.156 1.046 2.641.719.859 1.308 1.684 1.308 1.783 0 .132.359.793.817 1.519.948 1.519 1.079 3.962.36 6.306a444.7 444.7 0 0 0-2.158 6.901c-1.733 5.613-5.492 17.565-6.538 20.8a49.437 49.437 0 0 1-1.602 4.062c-.916 2.047-1.602 4.358-2.648 8.98-.196.892-1.243 4.457-2.321 7.924-1.079 3.434-2.91 9.311-4.087 13.042-1.144 3.731-2.386 7.297-2.713 7.924-.393.726-1.602 1.849-3.269 3.004-3.564 2.444-3.923 2.807-3.302 3.401.719.727 6.473 1.255 13.436 1.222h6.081l1.503-.991c1.864-1.287 2.06-1.849 1.112-3.136-1.079-1.42-1.602-2.477-1.896-3.797-.262-1.189-.229-1.387 2.681-10.632l1.601-5.183 2.289-1.354c2.125-1.288 13.175-6.967 13.534-6.967.098 0 1.144-.429 2.289-.99 3.105-1.42 3.563-1.486 5.23-.66 1.7.825 1.341-.1 5.46 13.338 1.602 5.217 2.909 9.938 2.909 10.467 0 1.518-1.209 4.325-2.615 6.009-1.406 1.75-1.406 2.575.065 3.07 1.798.628 20.596-.165 21.871-.924 2.713-1.585 2.91-1.75 2.91-2.74 0-.892-.262-1.156-2.779-2.576-3.727-2.179-5.46-4.226-6.767-8.089-1.308-3.863-4.773-14.891-5.525-17.565-.36-1.189-.981-3.335-1.471-4.787-1.995-6.307-2.42-7.759-2.42-8.321 0-.33-.294-1.155-.653-1.816-.36-.66-1.439-3.797-2.42-6.933-.98-3.137-2.68-8.618-3.792-12.15l-2.027-6.439-.098-4.919c-.098-4.358-.032-5.151.556-6.769.719-1.915 2.125-4.424 2.583-4.589.163-.066.294-.33.294-.561 0-.496-.752-.661-6.375-1.321-4.544-.528-7.061-.561-13.73-.099Zm6.505 30.409c.393.396 1.144 2.047 1.635 3.697a871.528 871.528 0 0 1 1.536 4.92c.785 2.443.785 2.905-.032 4.49-.523 1.057-1.112 1.552-2.943 2.477a52.401 52.401 0 0 1-3.955 1.815c-1.57.628-1.7.628-2.812.1-.621-.298-1.406-.991-1.732-1.519-.556-.925-.556-1.057.163-3.83a203.73 203.73 0 0 1 2.288-7.561c1.635-5.085 1.766-5.283 4.021-5.316a2.398 2.398 0 0 1 1.831.727Z"/>
  <path fill="#999" d="M266.967 218.23c-1.667 1.584-2.55 5.447-2.55 11.324 0 4.259.523 7.363 2.027 12.448l1.079 3.565 1.307-.033c.719 0 1.831-.198 2.452-.429l3.89-1.452c1.537-.595 4.545-1.354 6.768-1.717 4.674-.76 19.418-1.486 24.812-1.222 3.172.165 4.022.33 7.193 1.552 1.994.759 5.1 1.948 6.898 2.641 7.584 2.873 10.886 3.203 15.561 1.453 5.1-1.849 9.905-3.203 17.261-4.821l5.067-1.089h19.975l2.353 1.453c3.27 1.981 5.82 2.971 7.683 3.004 1.7 0 8.336-1.585 11.507-2.74 1.766-.661 2.583-.727 8.173-.727 3.433 0 7.094.033 8.173.099 1.079.033 2.583-.033 3.335-.198.784-.165 2.125-.165 3.105-.033.949.165 2.975.463 4.479.628 1.504.198 3.204.561 3.76.792.556.231 2.027 1.651 3.302 3.203 1.275 1.518 3.661 4.16 5.296 5.91l3.04 3.136 1.21-.66c1.144-.627 4.969-4.259 7.649-7.264.948-1.089 1.962-1.651 5.721-3.202 5.46-2.213 8.827-3.005 12.064-2.741 1.242.099 9.513.066 18.307-.099 15.005-.297 16.117-.33 17.49-.957 2.517-1.123 3.89-1.222 6.081-.43 3.89 1.453 4.413 1.519 6.505.529 2.648-1.222 3.988-1.123 7.16.462 1.471.726 3.301 1.42 4.119 1.519 1.307.165 1.7.066 3.007-.826l1.504-1.023 2.256.462c1.209.264 2.452.561 2.713.66.654.265 6.146 1.453 9.187 1.981 2.648.496 4.936 1.519 6.93 3.104l1.243 1.023 3.073-1.65c2.419-1.288 4.217-1.948 8.728-3.137l5.656-1.486 14.875.033c15.201.033 15.822.066 24.028 1.552 2.648.462 6.538.892 9.186.991 4.479.198 4.642.165 5.002-.529.229-.363.686-.693 1.013-.693.622 0 .654-.231.654-3.17v-3.202l2.518-3.335c2.386-3.203 3.726-5.613 4.184-7.528.196-.792.098-.924-.654-1.122-1.7-.43-6.93.132-16.836 1.782-17.49 2.906-18.863 3.005-43.643 3.038-22.688 0-35.242-.363-38.969-1.123-1.209-.264-3.171-.561-4.348-.693-2.157-.231-10.755-2.344-13.37-3.269-.785-.297-2.06-.528-2.845-.528-1.536 0-10.755 2.542-16.869 4.689-3.367 1.155-3.955 1.254-4.936.957-.785-.264-4.348-.264-12.815-.033-15.267.429-24.421.429-26.84-.033-1.046-.165-3.531-.924-5.492-1.684-3.465-1.287-3.694-1.321-6.244-1.122-1.471.132-4.283.594-6.244 1.056-4.479 1.057-10.363 2.113-11.638 2.113-.556 0-2.223-.396-3.727-.858-1.896-.595-3.008-.793-3.629-.628-.523.133-2.452.232-4.348.199-2.877-.066-3.629-.199-4.577-.793-.915-.561-1.602-.693-3.596-.66-2.517.033-7.682.693-12.684 1.618-3.237.594-9.154 1.221-11.867 1.221-1.929.033-2.746-.231-6.31-1.981-2.615-1.287-2.942-1.287-5.753-.429-2.747.858-9.546 2.542-11.508 2.806-1.013.166-2.354.067-3.759-.264-1.439-.33-5.558-.66-11.867-.891-11.933-.462-26.415-1.717-32.692-2.807-2.615-.462-7.192-1.221-10.233-1.65-3.007-.463-5.851-.991-6.276-1.156-.458-.165-1.766-.462-2.91-.66-1.144-.165-3.4-.958-5.132-1.783-2.125-.991-4.022-1.585-6.179-1.981-1.7-.297-4.054-.76-5.231-1.024-2.779-.66-2.648-.66-3.988.562Z"/>
</svg>
